<svg xmlns="http://www.w3.org/2000/svg" width="512.117" height="512.131" viewBox="0 0 512.117 512.131"><path d="M473.3-1.353c20.88,0,37.885,16.533,37.885,36.926V473.824c0,20.393-17.005,36.954-37.885,36.954H36.846c-20.839,0-37.773-16.561-37.773-36.954V35.573c0-20.393,16.934-36.926,37.773-36.926H473.3ZM435.476,435.036V301c0-65.822-14.212-116.427-91.12-116.427-36.955,0-61.739,20.263-71.867,39.476h-1.04V190.64H198.638v244.4H274.5V314.158c0-31.883,6.031-62.773,45.554-62.773,38.981,0,39.468,36.461,39.468,64.8V435.036h75.95ZM150.987,190.64H74.953v244.4h76.034Zm-38-121.489A44.05,44.05,0,1,0,157.016,113.2,44.029,44.029,0,0,0,112.99,69.151Z" transform="translate(0.927 1.353)" fill="#fff"/></svg>